<?xml version="1.0" encoding="UTF-8"?>
<svg id="Layer_1" xmlns="http://www.w3.org/2000/svg" version="1.1" viewBox="0 0 336.7 190.1">
  <!-- Generator: Adobe Illustrator 29.8.2, SVG Export Plug-In . SVG Version: 2.1.1 Build 3)  -->
  <path d="M33,106.5c2.4,2,5.7,3,9.7,3s6.1-.7,8.2-2.1c2.1-1.4,3.2-3.4,3.2-5.9s-.6-3.2-1.8-4.2-2.8-1.9-4.9-2.5-5.4-1.3-9.8-2.2c-4.4-.8-8.1-1.9-11-3.2-3-1.3-5.4-3.2-7.3-5.8-1.9-2.6-2.8-6-2.8-10.2s1.1-7.3,3.2-10.4,5.1-5.4,8.8-7.2c3.8-1.7,8-2.6,12.8-2.6s9.3.9,13.2,2.7,7,4.3,9.2,7.5c2.3,3.2,3.4,6.8,3.5,10.7h-14c-.3-2.9-1.5-5.2-3.6-6.9s-4.9-2.6-8.3-2.6-5.7.7-7.6,2c-1.9,1.3-2.9,3.2-2.9,5.7s.6,3.2,1.7,4.1c1.1,1,2.8,1.8,4.9,2.4,2.1.6,5.3,1.3,9.7,2.1s8.2,1.9,11.2,3.1,5.5,3.1,7.4,5.6,2.8,5.8,2.8,10-1.1,7.7-3.3,10.9c-2.2,3.2-5.3,5.7-9.3,7.6-4,1.8-8.4,2.8-13.4,2.8s-10.1-1-14.2-2.9c-4.2-1.9-7.4-4.6-9.7-8s-3.6-7.3-3.6-11.5l14,.2c.3,3.3,1.6,5.9,4,7.9h0Z" fill="#c7c8ca"/>
  <path d="M85.7,58.5c0,2.2-.7,4-2.2,5.4-1.5,1.5-3.3,2.2-5.5,2.2s-4.1-.7-5.6-2.2-2.2-3.3-2.2-5.4.7-3.9,2.2-5.4c1.5-1.4,3.3-2.1,5.6-2.1s4.1.7,5.5,2.1c1.5,1.4,2.2,3.2,2.2,5.4ZM84.7,71.3v48.9h-13.4v-48.9h13.4Z" fill="#c7c8ca"/>
  <path d="M165.8,93.4v26.9h-13.4v-27.4c0-7.4-2.8-11.1-8.5-11.1s-5.3,1-7,3.1c-1.8,2.1-2.7,4.9-2.7,8.6v26.8h-13.4v-27.4c0-7.4-2.9-11.1-8.6-11.1s-5.2,1.1-7,3.2c-1.7,2.1-2.6,5-2.6,8.6v26.7h-13.4v-49h11.7l1.2,6.1c1.6-2.1,3.6-3.7,5.9-4.8s5.1-1.7,8.6-1.8c7,0,11.8,2.8,14.6,8.3,1.8-2.7,4.1-4.7,7-6.1,2.9-1.4,6.2-2.1,9.8-2.1,5.3,0,9.5,1.7,12.8,5.2s4.9,9.3,4.9,17.4h0Z" fill="#c7c8ca"/>
  <path d="M217.4,82.7c1.9,3.8,2.9,8.2,2.9,13.2s-1,9.4-2.9,13.1-4.6,6.6-8,8.7-7.3,3.1-11.7,3.1c-6.3,0-11.2-2.3-14.7-6.8v25.2h-13.4v-67.9h11.7l1.3,6.8c1.6-2.2,3.8-4,6.3-5.3,2.6-1.3,5.5-2,8.9-2s8.3,1,11.7,3.1,6.1,5,8,8.8h-.1ZM206.7,95.7c0-4.2-1.1-7.6-3.3-10.1-2.2-2.6-5.1-3.9-8.8-3.9s-6.5,1.3-8.7,3.9c-2.2,2.6-3.2,5.9-3.2,10.1s1.1,7.7,3.2,10.3c2.2,2.6,5,3.9,8.7,3.9s6.5-1.3,8.8-3.9c2.2-2.6,3.3-6,3.3-10.2h0Z" fill="#c7c8ca"/>
  <path d="M236.4,53.6v66.6h-13.4V53.6h13.4Z" fill="#c7c8ca"/>
  <path d="M250.8,73.9c3.7-2.1,8-3.1,12.9-3.1s9.3,1,13.1,2.9c3.8,1.9,6.7,4.7,8.8,8.2,2.1,3.5,3.2,7.7,3.3,12.4,0,1.7-.1,3.2-.4,4.6h-35.5v.4c.3,3.6,1.5,6.3,3.4,8.4s4.7,3,8.1,3,5-.6,6.8-1.8c1.8-1.2,3-2.9,3.6-5.2h13.2c-.5,3.2-1.7,6.2-3.7,8.7-2,2.6-4.6,4.6-7.8,6.1-3.2,1.5-6.9,2.2-11.1,2.2s-10.2-1-14.1-3c-4-2-7-4.9-9.1-8.7-2.1-3.8-3.2-8.2-3.2-13.2s1-9.5,3.1-13.3,4.9-6.7,8.7-8.8v.2ZM271.8,83.2c-2-1.6-4.5-2.4-7.6-2.4s-5.4.8-7.4,2.5c-2,1.7-3.2,3.9-3.6,6.8h22.2c-.4-3-1.7-5.3-3.7-6.9h.1Z" fill="#c7c8ca"/>
  <path d="M297.6,55.2c2.4-1.4,5.1-2,8-2s5.6.7,8.1,2c2.4,1.4,4.4,3.2,5.8,5.6,1.4,2.4,2.2,5,2.2,7.8s-.7,5.5-2.2,7.9c-1.4,2.4-3.4,4.2-5.8,5.6-2.4,1.4-5.1,2-8.1,2s-5.5-.7-8-2c-2.4-1.4-4.4-3.2-5.8-5.6-1.4-2.4-2.2-5-2.2-7.8s.7-5.5,2.2-7.9c1.4-2.4,3.4-4.2,5.8-5.6ZM311.6,58.2c-1.8-1.1-3.9-1.6-6.1-1.6s-4.2.5-6,1.6-3.2,2.5-4.3,4.4c-1.1,1.8-1.6,3.9-1.6,6.1s.5,4.2,1.6,6,2.5,3.2,4.3,4.3,3.8,1.6,6,1.6,4.2-.5,6.1-1.6c1.8-1.1,3.3-2.5,4.4-4.3s1.6-3.8,1.6-6-.5-4.2-1.6-6.1c-1.1-1.8-2.5-3.3-4.4-4.4ZM310.8,61.9c1.2,1,1.8,2.3,1.8,4s-.3,2-.8,2.8-1.3,1.5-2.3,1.9l3.3,6.1h-4.5l-2.8-5.2h-1.9v5.2h-4.1v-16.4h6.6c2,0,3.5.5,4.7,1.5h0ZM305.9,68.1c.8,0,1.4-.2,1.8-.6.5-.4.7-.9.7-1.6s-.2-1.3-.6-1.7-1.1-.6-1.9-.6h-2.3v4.5s2.3,0,2.3,0Z" fill="#c7c8ca"/>
</svg>